<svg xmlns="http://www.w3.org/2000/svg" width="320" height="200" viewBox="0 0 320 200" role="img" aria-label="Design-Thumbnail Domotic Assistant Stil">
  <rect width="320" height="200" fill="#f86578"/>
  <rect x="22" y="18" width="276" height="164" rx="12" fill="#162e5c" stroke="#0f172a" stroke-width="2"/>
  <rect x="34" y="30" width="26" height="140" rx="5" fill="#1b3362"/>
  <rect x="66" y="30" width="155" height="140" rx="5" fill="#1b3362"/>
  <rect x="225" y="30" width="61" height="140" rx="5" fill="#213f70"/>
  <rect x="72" y="62" width="70" height="38" rx="8" fill="none" stroke="#61e1ff"/>
  <rect x="147" y="62" width="70" height="38" rx="8" fill="none" stroke="#4b6698"/>
  <rect x="72" y="106" width="70" height="38" rx="8" fill="none" stroke="#4b6698"/>
  <rect x="147" y="106" width="70" height="38" rx="8" fill="none" stroke="#61e1ff"/>
  <circle cx="276" cy="38" r="6" fill="#61e1ff"/>
  <rect x="235" y="64" width="41" height="8" rx="4" fill="#7ec9ff"/>
  <rect x="235" y="80" width="30" height="8" rx="4" fill="#4b6698"/>
  <rect x="235" y="96" width="41" height="8" rx="4" fill="#7ec9ff"/>
</svg>
